<?xml version="1.0" encoding="UTF-8" standalone="no"?>
<!-- Created with Inkscape (http://www.inkscape.org/) -->

<svg
   xmlns:dc="http://purl.org/dc/elements/1.1/"
   xmlns:cc="http://creativecommons.org/ns#"
   xmlns:rdf="http://www.w3.org/1999/02/22-rdf-syntax-ns#"
   xmlns:svg="http://www.w3.org/2000/svg"
   xmlns="http://www.w3.org/2000/svg"
   xmlns:sodipodi="http://sodipodi.sourceforge.net/DTD/sodipodi-0.dtd"
   xmlns:inkscape="http://www.inkscape.org/namespaces/inkscape"
   width="16.685232mm"
   height="16.68523mm"
   viewBox="0 0 16.685232 16.68523"
   version="1.1"
   id="svg6808"
   inkscape:version="0.92.0 r15299"
   sodipodi:docname="STM_GRAPHE.svg">
  <defs
     id="defs6802">
    <clipPath
       clipPathUnits="userSpaceOnUse"
       id="clipPath4459-0-6-7-0-98-6-9-1">
      <path
         d="M 0,329 H 104 V 0 H 0 Z"
         id="path4461-5-9-5-5-3-4-9-0"
         inkscape:connector-curvature="0" />
    </clipPath>
  </defs>
  <sodipodi:namedview
     id="base"
     pagecolor="#ffffff"
     bordercolor="#666666"
     borderopacity="1.0"
     inkscape:pageopacity="0.0"
     inkscape:pageshadow="2"
     inkscape:zoom="7.9195959"
     inkscape:cx="58.955877"
     inkscape:cy="24.605014"
     inkscape:document-units="mm"
     inkscape:current-layer="layer1"
     showgrid="false"
     inkscape:window-width="1920"
     inkscape:window-height="1178"
     inkscape:window-x="1672"
     inkscape:window-y="-8"
     inkscape:window-maximized="1"
     inkscape:pagecheckerboard="true"
     fit-margin-top="0"
     fit-margin-left="0"
     fit-margin-right="0"
     fit-margin-bottom="0" />
  <metadata
     id="metadata6805">
    <rdf:RDF>
      <cc:Work
         rdf:about="">
        <dc:format>image/svg+xml</dc:format>
        <dc:type
           rdf:resource="http://purl.org/dc/dcmitype/StillImage" />
        <dc:title></dc:title>
      </cc:Work>
    </rdf:RDF>
  </metadata>
  <g
     inkscape:label="Calque 1"
     inkscape:groupmode="layer"
     id="layer1"
     transform="translate(-23.407384,-96.645475)">
    <g
       style="display:inline"
       id="g19437"
       transform="matrix(0.30103704,0,0,0.30103702,6.3138218,-342.49445)">
      <g
         transform="translate(-48.20752,-1747.2054)"
         id="g18112">
        <circle
           style="color:#000000;display:inline;overflow:visible;visibility:visible;fill:none;stroke:#ffffff;stroke-width:1.5;stroke-linecap:square;stroke-linejoin:bevel;stroke-miterlimit:4;stroke-dasharray:none;stroke-dashoffset:0;stroke-opacity:1;marker:none;enable-background:accumulate"
           id="path2985-7-7-1-6-7-6-2-2-9-5-6-6-4-8-60-2-0"
           inkscape:export-filename="D:\DEV\GIT\GRM_BOSS_CENTRAL\client\lib\view-generator-providers\src\main\resources\META-INF\etc\www\map\ALL_SYNOPTIC_SYMBOLS.png"
           inkscape:export-xdpi="90"
           inkscape:export-ydpi="90"
           cx="132.7027"
           cy="3233.6755"
           r="26.962921" />
      </g>
      <g
         transform="matrix(0.82917026,0,0,-0.82917026,31.290691,1530.2455)"
         style="fill:#ffffff;fill-opacity:1;stroke:none;stroke-width:0.42424503;stroke-miterlimit:4;stroke-dasharray:none;stroke-opacity:1"
         id="g4457-6-6-0-9-6"
         clip-path="url(#clipPath4459-0-6-7-0-98-6-9-1)">
        <g
           style="fill:#ffffff;fill-opacity:1;stroke:none;stroke-width:0.42424503;stroke-miterlimit:4;stroke-dasharray:none;stroke-opacity:1"
           id="g4463-9-4-0-4-8"
           transform="translate(57.5168,40.0788)">
          <path
             d="m 0,0 c -0.462,0.114 -0.91,0.249 -1.336,0.398 -2.423,0.853 -4.491,2.26 -6.14,4.1 l -1.56,-3.745 c -2.181,-1.258 -3.709,-3.524 -3.951,-6.164 -0.017,-0.192 0.029,-0.366 0.143,-0.512 0.11,-0.146 0.255,-0.22 0.422,-0.22 H 2.299 c 0.167,0 0.309,0.074 0.423,0.22 0.11,0.146 0.16,0.32 0.142,0.512 C 2.665,-3.237 1.592,-1.315 0,0"
             style="fill:#ffffff;fill-opacity:1;fill-rule:nonzero;stroke:none;stroke-width:0.42424503;stroke-miterlimit:4;stroke-dasharray:none;stroke-opacity:1"
             id="path4465-6-7-6-6-2"
             inkscape:connector-curvature="0" />
        </g>
        <g
           style="fill:#ffffff;fill-opacity:1;stroke:none;stroke-width:0.42424503;stroke-miterlimit:4;stroke-dasharray:none;stroke-opacity:1"
           id="g4467-8-7-3-0-9"
           transform="translate(67.2397,61.526)">
          <path
             d="M 0,0 C -0.661,-0.334 -1.091,-0.945 -1.219,-1.62 L -4.893,-2.921 -3.237,-6.229 0,-4.068 c 0.618,-0.309 1.372,-0.331 2.036,0 1.123,0.565 1.578,1.929 1.016,3.052 C 2.491,0.107 1.123,0.561 0,0"
             style="fill:#ffffff;fill-opacity:1;fill-rule:nonzero;stroke:none;stroke-width:0.42424503;stroke-miterlimit:4;stroke-dasharray:none;stroke-opacity:1"
             id="path4469-5-7-0-0-9"
             inkscape:connector-curvature="0" />
        </g>
        <g
           style="fill:#ffffff;fill-opacity:1;stroke:none;stroke-width:0.42424503;stroke-miterlimit:4;stroke-dasharray:none;stroke-opacity:1"
           id="g4471-0-3-2-1-3"
           transform="translate(54.6573,67.0405)">
          <path
             d="m 0,0 c -0.075,0.149 -0.199,0.249 -0.362,0.295 -0.16,0.043 -0.317,0.018 -0.459,-0.075 -3.318,-2.174 -7.365,-9.27 -3.507,-16.973 3.855,-7.699 11.964,-8.712 15.691,-7.358 0.16,0.056 0.273,0.167 0.334,0.323 0.064,0.156 0.057,0.316 -0.021,0.465 z"
             style="fill:#ffffff;fill-opacity:1;fill-rule:nonzero;stroke:none;stroke-width:0.42424503;stroke-miterlimit:4;stroke-dasharray:none;stroke-opacity:1"
             id="path4473-6-2-6-3-3"
             inkscape:connector-curvature="0" />
        </g>
        <g
           style="fill:#ffffff;fill-opacity:1;stroke:none;stroke-width:0.42424503;stroke-miterlimit:4;stroke-dasharray:none;stroke-opacity:1"
           id="g4475-6-4-9-3-3"
           transform="translate(73.9998,63.733)">
          <path
             d="m 0,0 c -0.456,0.475 -0.992,0.846 -1.578,1.102 -0.415,0.182 -0.9,-0.008 -1.082,-0.423 -0.182,-0.416 0.008,-0.901 0.423,-1.083 l -10e-4,0.005 c 0.398,-0.172 0.756,-0.418 1.053,-0.729 0.289,-0.3 0.525,-0.665 0.689,-1.083 0.164,-0.421 0.238,-0.847 0.23,-1.263 -0.009,-0.428 -0.107,-0.855 -0.28,-1.251 -0.182,-0.415 0.008,-0.9 0.424,-1.082 0.415,-0.182 0.9,0.008 1.082,0.424 0.255,0.581 0.398,1.222 0.411,1.88 0.012,0.63 -0.095,1.271 -0.337,1.888 C 0.793,-0.999 0.437,-0.455 0,0"
             style="fill:#ffffff;fill-opacity:1;fill-rule:nonzero;stroke:none;stroke-width:0.42424503;stroke-miterlimit:4;stroke-dasharray:none;stroke-opacity:1"
             id="path4477-5-4-1-9-7"
             inkscape:connector-curvature="0" />
        </g>
        <g
           style="fill:#ffffff;fill-opacity:1;stroke:none;stroke-width:0.42424503;stroke-miterlimit:4;stroke-dasharray:none;stroke-opacity:1"
           id="g4479-4-5-7-5-2"
           transform="translate(77.3008,66.3721)">
          <path
             d="M 0,0 C -0.758,0.789 -1.654,1.409 -2.631,1.836 -3.047,2.018 -3.532,1.828 -3.714,1.413 -3.895,0.997 -3.706,0.512 -3.29,0.33 -2.5,-0.014 -1.782,-0.51 -1.183,-1.132 -0.606,-1.733 -0.132,-2.46 0.195,-3.294 0.521,-4.128 0.666,-4.983 0.65,-5.816 0.633,-6.68 0.44,-7.533 0.095,-8.32 c -0.182,-0.416 0.008,-0.901 0.424,-1.083 0.415,-0.182 0.9,0.008 1.082,0.424 0.425,0.976 0.665,2.04 0.686,3.134 0.021,1.052 -0.16,2.12 -0.563,3.15 C 1.32,-1.663 0.729,-0.756 0,0"
             style="fill:#ffffff;fill-opacity:1;fill-rule:nonzero;stroke:none;stroke-width:0.42424503;stroke-miterlimit:4;stroke-dasharray:none;stroke-opacity:1"
             id="path4481-3-5-5-4-3"
             inkscape:connector-curvature="0" />
        </g>
        <g
           style="fill:#ffffff;fill-opacity:1;stroke:none;stroke-width:0.42424503;stroke-miterlimit:4;stroke-dasharray:none;stroke-opacity:1"
           id="g4483-5-6-9-5-5"
           transform="translate(83.0152,65.238)">
          <path
             d="M 0,0 C -0.566,1.446 -1.395,2.714 -2.413,3.773 -3.473,4.877 -4.728,5.745 -6.098,6.344 -6.513,6.526 -6.998,6.336 -7.18,5.92 -7.362,5.505 -7.172,5.02 -6.757,4.838 l -0.001,0.004 c 1.183,-0.517 2.259,-1.259 3.16,-2.196 0.87,-0.906 1.58,-1.995 2.068,-3.242 0.489,-1.25 0.706,-2.532 0.681,-3.784 -0.026,-1.3 -0.314,-2.578 -0.83,-3.758 -0.182,-0.416 0.008,-0.901 0.423,-1.083 0.416,-0.182 0.901,0.008 1.083,0.424 0.599,1.369 0.931,2.86 0.961,4.388 C 0.817,-2.94 0.566,-1.446 0,0"
             style="fill:#ffffff;fill-opacity:1;fill-rule:nonzero;stroke:none;stroke-width:0.42424503;stroke-miterlimit:4;stroke-dasharray:none;stroke-opacity:1"
             id="path4485-1-5-4-3-5"
             inkscape:connector-curvature="0" />
        </g>
      </g>
    </g>
  </g>
</svg>
